<svg width="222" height="45" viewBox="0 0 222 45" fill="none" xmlns="http://www.w3.org/2000/svg">
<g clip-path="url(#clip0_193_52)">
<path d="M15.5173 21.6279C16.5656 19.6035 17.4973 17.8158 18.3216 16.2559C19.3429 14.3104 20.3284 12.3913 21.2781 10.5159C22.622 7.8343 23.6075 5.80996 24.2346 4.44287C24.584 4.49545 24.8887 4.53927 25.1485 4.57432C25.4083 4.60938 25.6233 4.63567 25.8025 4.63567C25.9817 4.63567 26.2415 4.60938 26.5909 4.55679C26.9403 4.50421 27.2091 4.46916 27.4151 4.44287C27.7646 7.53635 28.1229 10.6211 28.4992 13.697C29.0726 18.5256 29.413 21.2773 29.5116 21.9609C29.8341 24.2306 30.2373 26.7545 30.7032 29.5325C30.3269 29.5325 29.7714 29.5062 29.0188 29.4448C28.2752 29.3835 27.8004 29.3572 27.5943 29.3572C27.1733 29.3572 26.5999 29.3835 25.8921 29.4448C25.1843 29.5062 24.7363 29.5325 24.5661 29.5325C24.5661 27.2189 24.378 24.511 24.0017 21.4C23.6254 18.2978 23.276 15.327 22.9535 12.5052C22.0038 14.3806 21.0631 16.2559 20.1313 18.1138C19.1996 19.9804 18.2678 21.8382 17.345 23.6873C16.7179 24.958 15.8219 26.8421 14.6573 29.3572C14.2541 29.3046 13.9584 29.2871 13.7613 29.2871C13.6628 29.2871 13.4836 29.3134 13.2417 29.3572C12.3906 27.6045 11.5484 25.8606 10.6973 24.1254C9.62218 21.9784 8.69938 20.1381 7.92889 18.6045C6.9613 16.7029 5.9937 14.8012 5.05299 12.8995C4.6767 15.6512 4.41689 17.6668 4.26458 18.9288C4.01372 20.9531 3.82558 22.8372 3.68223 24.5987C3.54784 26.3513 3.47617 27.9989 3.47617 29.5325C3.07301 29.4799 2.73256 29.4448 2.44586 29.401C2.15917 29.3659 1.91727 29.3484 1.72017 29.3484C1.34388 29.3484 1.03031 29.3659 0.78841 29.401C0.537552 29.4361 0.277735 29.4799 0 29.5237C0.44796 27.1313 0.886961 24.5636 1.30804 21.8119C1.5589 20.2783 1.96206 17.5178 2.52649 13.548C3.09092 9.57822 3.52097 6.53732 3.81662 4.44287C4.16603 4.49545 4.46168 4.53927 4.71254 4.57432C4.9634 4.60938 5.16946 4.63567 5.34864 4.63567C5.69805 4.63567 6.00266 4.60938 6.26248 4.55679C6.5223 4.50421 6.74628 4.46916 6.9165 4.44287C7.53469 5.78367 8.45748 7.68532 9.68489 10.1478C10.6346 12.0495 11.5932 13.9599 12.5608 15.8879C13.5284 17.8158 14.5139 19.7262 15.5173 21.6279Z" fill="white"/>
<path d="M79.8802 21.6279C80.9284 19.6035 81.8602 17.8158 82.6845 16.2559C83.7058 14.3104 84.6913 12.3913 85.641 10.5159C86.9849 7.8343 87.9704 5.80996 88.5975 4.44287C88.9469 4.49545 89.2515 4.53927 89.5114 4.57432C89.7712 4.60938 89.9862 4.63567 90.1654 4.63567C90.3446 4.63567 90.6044 4.60938 90.9538 4.55679C91.3032 4.50421 91.572 4.46916 91.778 4.44287C92.1274 7.53635 92.4858 10.6211 92.8621 13.697C93.4355 18.5256 93.7759 21.2773 93.8745 21.9609C94.197 24.2306 94.6002 26.7545 95.0661 29.5325C94.6898 29.5325 94.1343 29.5062 93.3817 29.4448C92.6381 29.3835 92.1633 29.3572 91.9572 29.3572C91.5361 29.3572 90.9627 29.3835 90.255 29.4448C89.5472 29.5062 89.0992 29.5325 88.929 29.5325C88.929 27.2189 88.7409 24.511 88.3646 21.4C87.9883 18.2978 87.6389 15.327 87.3164 12.5052C86.3667 14.3806 85.426 16.2559 84.4942 18.1138C83.5625 19.9804 82.6307 21.8382 81.7079 23.6873C81.0808 24.958 80.1848 26.8421 79.0201 29.3572C78.617 29.3046 78.3213 29.2871 78.1242 29.2871C78.0257 29.2871 77.8465 29.3134 77.6046 29.3572C76.7535 27.6045 75.9113 25.8606 75.0602 24.1254C73.9851 21.9784 73.0623 20.1381 72.2918 18.6045C71.3242 16.7029 70.3566 14.8012 69.4159 12.8995C69.0396 15.6512 68.7798 17.6668 68.6275 18.9288C68.3766 20.9531 68.1885 22.8372 68.0451 24.5987C67.9107 26.3513 67.8391 27.9989 67.8391 29.5325C67.4359 29.4799 67.0954 29.4448 66.8087 29.401C66.5221 29.3659 66.2802 29.3484 66.0831 29.3484C65.7068 29.3484 65.3932 29.3659 65.1513 29.401C64.9004 29.4361 64.6406 29.4799 64.3629 29.5237C64.8108 27.1313 65.2499 24.5636 65.6709 21.8119C65.9218 20.2783 66.325 17.5178 66.8894 13.548C67.4538 9.57822 67.8839 6.53732 68.1795 4.44287C68.5289 4.49545 68.8246 4.53927 69.0754 4.57432C69.3263 4.60938 69.5323 4.63567 69.7115 4.63567C70.0609 4.63567 70.3656 4.60938 70.6254 4.55679C70.8852 4.50421 71.1092 4.46916 71.2794 4.44287C71.8976 5.78367 72.8204 7.68532 74.0478 10.1478C74.9975 12.0495 75.9561 13.9599 76.9237 15.8879C77.8913 17.8158 78.8768 19.7262 79.8802 21.6279Z" fill="white"/>
<path d="M99.2411 4.45166H113.486C113.432 4.72333 113.397 5.00375 113.352 5.29295C113.316 5.58214 113.298 5.82751 113.298 6.02031C113.298 6.18681 113.325 6.44971 113.37 6.79148C113.423 7.13326 113.459 7.40492 113.486 7.59772C112.214 7.43121 110.897 7.29976 109.544 7.21213C108.182 7.12449 106.623 7.08068 104.85 7.08068V14.9414H108.738C109.705 14.9414 110.467 14.9239 110.996 14.8889C111.533 14.8538 112.313 14.7574 113.334 14.6172C113.28 14.8889 113.244 15.1693 113.199 15.4585C113.164 15.7477 113.146 15.993 113.146 16.1858C113.146 16.3523 113.173 16.6152 113.217 16.957C113.271 17.2988 113.307 17.5705 113.334 17.7632C112.734 17.6931 111.99 17.6143 111.112 17.5442C110.225 17.4741 109.437 17.4302 108.738 17.4302H104.85V26.7194C106.614 26.7194 108.182 26.6756 109.544 26.588C110.906 26.5003 112.214 26.3777 113.486 26.2024C113.432 26.4741 113.397 26.7545 113.352 27.0437C113.316 27.3329 113.298 27.5782 113.298 27.771C113.298 27.9463 113.325 28.2004 113.37 28.5422C113.423 28.884 113.459 29.1557 113.486 29.3484H99.2411V4.45166Z" fill="white"/>
<path d="M118.163 29.4624V4.45166H121.863C123.512 6.20434 125.285 8.0797 127.212 10.0865C128.287 11.1819 130.105 13.1011 132.686 15.8265C135.266 18.5607 137.04 20.4711 138.016 21.5666V4.45166L139.513 4.56558L141.009 4.45166V29.5325L137.828 29.4974C135.714 27.2102 133.609 24.9054 131.512 22.5831C129.317 20.1907 127.23 17.9736 125.232 15.9317L121.155 11.7603V29.5325L119.659 29.3484L118.163 29.4624Z" fill="white"/>
<path d="M157.413 7.04565V29.5325C156.992 29.5325 156.643 29.5237 156.365 29.4975C155.29 29.4011 154.707 29.3485 154.609 29.3485C154.188 29.3485 153.641 29.3748 152.96 29.4361C152.288 29.4975 151.903 29.5237 151.805 29.5237V7.04565C150.488 7.04565 149.332 7.08947 148.346 7.1771C147.361 7.26473 146.196 7.38742 144.852 7.56269C144.906 7.22092 144.942 6.92296 144.987 6.66882C145.023 6.41469 145.04 6.18684 145.04 5.99404C145.04 5.65227 145.014 5.35431 144.969 5.10018C144.915 4.84604 144.879 4.62695 144.852 4.46045H164.106C164.052 4.80222 164.016 5.10018 163.971 5.35431C163.935 5.60845 163.918 5.82754 163.918 5.99404C163.918 6.3621 163.944 6.66882 163.989 6.92296C164.043 7.1771 164.079 7.39618 164.106 7.56269C162.287 7.3436 161.194 7.22092 160.818 7.19463C159.698 7.09823 158.56 7.04565 157.413 7.04565Z" fill="white"/>
<path d="M194.63 16.7905C194.63 20.4887 193.322 23.5821 190.706 26.0622C187.964 28.6649 184.362 29.9706 179.901 29.9706C175.69 29.9706 172.33 28.8226 169.831 26.5354C167.322 24.2482 166.077 21.0495 166.077 16.9307C166.077 13.1537 167.358 10.0515 169.929 7.62401C172.617 5.0651 176.245 3.78564 180.806 3.78564C185.644 3.78564 189.281 5.24913 191.718 8.16734C193.662 10.5072 194.63 13.3816 194.63 16.7817V16.7905ZM180.573 5.98525C177.903 5.98525 175.878 6.95799 174.48 8.90346C173.011 10.9453 172.276 13.9775 172.276 17.9911C172.276 20.6639 172.877 22.8986 174.068 24.6688C175.466 26.737 177.473 27.771 180.089 27.771C182.705 27.771 184.909 26.588 186.405 24.2306C187.749 22.0924 188.421 19.3757 188.421 16.0894C188.421 13.3903 187.821 11.1118 186.629 9.26276C185.205 7.07191 183.189 5.97649 180.573 5.97649V5.98525Z" fill="white"/>
<path d="M199.163 29.4624V4.45166H202.863C204.512 6.20434 206.286 8.0797 208.212 10.0865C209.287 11.1819 211.106 13.1011 213.686 15.8265C216.266 18.5607 218.04 20.4711 219.017 21.5666V4.45166L220.513 4.56558L222.009 4.45166V29.5325L218.828 29.4974C216.714 27.2102 214.609 24.9054 212.512 22.5831C210.317 20.1907 208.23 17.9736 206.232 15.9317L202.155 11.7603V29.5325L200.659 29.3484L199.163 29.4624Z" fill="white"/>
<path d="M1.80975 38.436H4.05851C4.4796 38.436 4.83796 38.5061 5.13362 38.6551C5.42927 38.8041 5.64429 38.9969 5.7966 39.251C5.93994 39.5051 6.01162 39.8031 6.01162 40.1273C6.01162 40.5042 5.91307 40.8197 5.71596 41.0563C5.51886 41.2929 5.268 41.4506 4.95443 41.5295V41.5821C5.17841 41.5996 5.39343 41.6697 5.59054 41.8012C5.7966 41.9326 5.95786 42.1254 6.08329 42.362C6.20872 42.5986 6.27143 42.879 6.27143 43.1945C6.27143 43.5275 6.19976 43.8167 6.04745 44.0709C5.89515 44.325 5.66221 44.5266 5.34864 44.6668C5.03507 44.807 4.64086 44.8859 4.18394 44.8859H1.80975V38.4272V38.436ZM4.76629 41.1877C4.96339 41.0826 5.1157 40.9423 5.22321 40.7583C5.33072 40.5743 5.38447 40.364 5.38447 40.1361C5.38447 39.7943 5.268 39.5227 5.04402 39.3211C4.81109 39.1196 4.47959 39.0144 4.04955 39.0144H2.45482V41.3455H4.09435C4.34521 41.3455 4.56919 41.2929 4.76629 41.1877ZM5.268 44.0183C5.51886 43.808 5.64429 43.5363 5.64429 43.1945C5.64429 42.9579 5.58158 42.7388 5.46511 42.5373C5.34864 42.3357 5.16945 42.1867 4.95443 42.0641C4.73941 41.9501 4.47959 41.8888 4.20186 41.8888H2.46378V44.325H4.17498C4.65878 44.325 5.02611 44.2198 5.27696 44.0183H5.268Z" fill="white"/>
<path d="M16.1176 38.436V42.7038C16.1176 43.142 16.0101 43.5363 15.804 43.8781C15.589 44.2286 15.2934 44.5003 14.9081 44.6931C14.5229 44.8947 14.0928 44.991 13.6001 44.991C13.1073 44.991 12.6683 44.8947 12.292 44.6931C11.9157 44.4915 11.6111 44.2199 11.4051 43.8781C11.19 43.5276 11.0915 43.142 11.0915 42.7038V38.436H11.7366V42.66C11.7366 42.993 11.8172 43.2997 11.9695 43.5626C12.1218 43.8255 12.3458 44.0358 12.6235 44.1848C12.9013 44.3338 13.2327 44.4127 13.6001 44.4127C13.9674 44.4127 14.2989 44.3338 14.5766 44.1848C14.8544 44.0358 15.0783 43.8255 15.2306 43.5626C15.3829 43.2997 15.4636 42.993 15.4636 42.6687V38.4448H16.1086L16.1176 38.436Z" fill="white"/>
<path d="M24.5841 39.4528C24.4497 39.2776 24.2705 39.1461 24.0375 39.0497C23.8046 38.9533 23.5537 38.9095 23.276 38.9095C22.9804 38.9095 22.7116 38.9621 22.4786 39.0585C22.2457 39.1637 22.0665 39.3039 21.9321 39.4791C21.8067 39.6632 21.735 39.856 21.735 40.0838C21.735 40.3905 21.8605 40.6271 22.1024 40.8112C22.3443 40.9952 22.6578 41.1354 23.0341 41.2318L23.715 41.4158C24.2436 41.5648 24.6736 41.7664 25.0141 42.0293C25.3545 42.2922 25.5158 42.669 25.5158 43.151C25.5158 43.5015 25.4262 43.817 25.2381 44.0974C25.0499 44.3779 24.7901 44.597 24.4407 44.7547C24.0913 44.9124 23.6881 44.9913 23.2133 44.9913C22.7385 44.9913 22.3711 44.9212 22.0396 44.7722C21.6992 44.6232 21.4394 44.4217 21.2423 44.1588C21.0452 43.8959 20.9377 43.5979 20.9197 43.2474H21.5827C21.6006 43.4928 21.6902 43.7031 21.8336 43.8784C21.9769 44.0536 22.174 44.1851 22.4159 44.2815C22.6578 44.3691 22.9266 44.4217 23.2223 44.4217C23.5448 44.4217 23.8315 44.3691 24.0913 44.2639C24.3511 44.1588 24.5482 44.0098 24.6916 43.817C24.8349 43.6242 24.9066 43.3964 24.9066 43.151C24.9066 42.853 24.7901 42.6164 24.5572 42.4412C24.3242 42.2659 23.9838 42.1169 23.5358 41.9942L22.7474 41.7751C22.2099 41.6174 21.7977 41.4071 21.52 41.1354C21.2423 40.8637 21.0989 40.522 21.0989 40.1189C21.0989 39.7771 21.1975 39.4704 21.3856 39.1987C21.5738 38.927 21.8425 38.7255 22.174 38.5765C22.5055 38.4275 22.8818 38.3574 23.285 38.3574C23.6881 38.3574 24.0555 38.4275 24.378 38.5765C24.7005 38.7255 24.9514 38.927 25.1395 39.1899C25.3277 39.4528 25.4262 39.742 25.4441 40.0663H24.808C24.7901 39.8384 24.7095 39.6281 24.5751 39.4616L24.5841 39.4528Z" fill="white"/>
<path d="M29.7445 44.8947L32.1456 38.436H32.8444L35.2455 44.8947H34.5646L33.8747 42.9755H31.1332L30.4434 44.8947H29.7625H29.7445ZM33.6597 42.4146L32.5129 39.2598H32.4681L31.3214 42.4146H33.6597Z" fill="white"/>
<path d="M44.9035 44.8947H44.2853L40.4508 39.5753H40.397V44.8947H39.752V38.436H40.3791L44.2136 43.7642H44.2674V38.436H44.9035V44.8947Z" fill="white"/>
<path d="M55.4216 38.436H60.2416V39.0057H58.1631V44.8859H57.5091V39.0057H55.4216V38.436Z" fill="white"/>
<path d="M69.7742 43.4139C69.5323 43.9134 69.1919 44.3077 68.7619 44.5794C68.3318 44.8511 67.8301 44.9913 67.2836 44.9913C66.7371 44.9913 66.2354 44.8598 65.7964 44.5794C65.3574 44.3077 65.0259 43.9222 64.775 43.4139C64.5331 42.9144 64.4077 42.3272 64.4077 41.67C64.4077 41.0127 64.5331 40.4256 64.775 39.926C65.0169 39.4265 65.3574 39.0409 65.7964 38.7605C66.2354 38.4888 66.7281 38.3486 67.2836 38.3486C67.8391 38.3486 68.3318 38.4888 68.7619 38.7605C69.2009 39.0322 69.5323 39.4178 69.7742 39.926C70.0161 40.4256 70.1416 41.0127 70.1416 41.67C70.1416 42.3272 70.0161 42.9144 69.7742 43.4139ZM69.2277 40.2152C69.0306 39.8034 68.7708 39.4966 68.4304 39.2776C68.0899 39.0585 67.7136 38.9533 67.2836 38.9533C66.8535 38.9533 66.4683 39.0585 66.1368 39.2776C65.7964 39.4966 65.5365 39.8034 65.3394 40.2152C65.1423 40.6271 65.0527 41.1091 65.0527 41.67C65.0527 42.2308 65.1513 42.7128 65.3394 43.1247C65.5276 43.5366 65.7964 43.852 66.1278 44.0624C66.4683 44.2814 66.8535 44.3866 67.2836 44.3866C67.7136 44.3866 68.0989 44.2814 68.4304 44.0624C68.7619 43.8433 69.0306 43.5278 69.2277 43.1247C69.4159 42.7128 69.5144 42.2308 69.5144 41.67C69.5144 41.1091 69.4159 40.6271 69.2277 40.2152Z" fill="white"/>
<path d="M80.0057 38.436V42.7038C80.0057 43.142 79.8981 43.5363 79.6921 43.8781C79.4771 44.2286 79.1814 44.5003 78.7962 44.6931C78.4109 44.8947 77.9809 44.991 77.4881 44.991C76.9954 44.991 76.5564 44.8947 76.1801 44.6931C75.8038 44.4915 75.4992 44.2199 75.2931 43.8781C75.0781 43.5276 74.9796 43.142 74.9796 42.7038V38.436H75.6246V42.66C75.6246 42.993 75.7052 43.2997 75.8576 43.5626C76.0099 43.8255 76.2338 44.0358 76.5116 44.1848C76.7893 44.3338 77.1208 44.4127 77.4881 44.4127C77.8555 44.4127 78.1869 44.3338 78.4647 44.1848C78.7424 44.0358 78.9664 43.8255 79.1187 43.5626C79.271 43.2997 79.3516 42.993 79.3516 42.6687V38.4448H79.9967L80.0057 38.436Z" fill="white"/>
<path d="M85.1213 38.436H87.2805C87.7464 38.436 88.1316 38.5149 88.4542 38.6814C88.7767 38.8479 89.0186 39.0757 89.1799 39.3649C89.3411 39.6541 89.4217 39.9959 89.4217 40.3815C89.4217 40.8197 89.3142 41.1965 89.1082 41.512C88.8932 41.8274 88.5885 42.0465 88.1854 42.178L89.6995 44.8946H88.9559L87.5224 42.3007H87.2984H85.7754V44.8859H85.1303V38.4272L85.1213 38.436ZM87.2626 41.731C87.7643 41.731 88.1495 41.6171 88.4004 41.3805C88.6513 41.1439 88.7856 40.8109 88.7856 40.3902C88.7856 39.9696 88.6602 39.6278 88.4004 39.3825C88.1406 39.1371 87.7643 39.0144 87.2536 39.0144H85.7664V41.731H87.2626Z" fill="white"/>
<path d="M94.9138 44.8947H94.2687V38.436H94.9138V44.8947Z" fill="white"/>
<path d="M103.371 39.4528C103.237 39.2776 103.058 39.1461 102.825 39.0497C102.592 38.9533 102.341 38.9095 102.063 38.9095C101.768 38.9095 101.499 38.9621 101.266 39.0585C101.033 39.1637 100.854 39.3039 100.719 39.4791C100.594 39.6632 100.522 39.856 100.522 40.0838C100.522 40.3905 100.648 40.6271 100.89 40.8112C101.131 40.9952 101.445 41.1354 101.821 41.2318L102.502 41.4158C103.031 41.5648 103.461 41.7664 103.801 42.0293C104.142 42.2922 104.303 42.669 104.303 43.151C104.303 43.5015 104.213 43.817 104.025 44.0974C103.837 44.3779 103.577 44.597 103.228 44.7547C102.878 44.9124 102.475 44.9913 102 44.9913C101.526 44.9913 101.158 44.9212 100.827 44.7722C100.486 44.6232 100.227 44.4217 100.029 44.1588C99.8324 43.8959 99.7249 43.5979 99.7069 43.2474H100.37C100.388 43.4928 100.477 43.7031 100.621 43.8784C100.764 44.0536 100.961 44.1851 101.203 44.2815C101.445 44.3691 101.714 44.4217 102.009 44.4217C102.332 44.4217 102.619 44.3691 102.878 44.2639C103.138 44.1588 103.335 44.0098 103.479 43.817C103.622 43.6242 103.694 43.3964 103.694 43.151C103.694 42.853 103.577 42.6164 103.344 42.4412C103.111 42.2659 102.771 42.1169 102.323 41.9942L101.535 41.7751C100.997 41.6174 100.585 41.4071 100.307 41.1354C100.029 40.8637 99.8861 40.522 99.8861 40.1189C99.8861 39.7771 99.9847 39.4704 100.173 39.1987C100.361 38.927 100.63 38.7255 100.961 38.5765C101.293 38.4275 101.669 38.3574 102.072 38.3574C102.475 38.3574 102.843 38.4275 103.165 38.5765C103.488 38.7255 103.739 38.927 103.927 39.1899C104.115 39.4528 104.213 39.742 104.231 40.0663H103.595C103.577 39.8384 103.497 39.6281 103.362 39.4616L103.371 39.4528Z" fill="white"/>
<path d="M108.756 38.436H113.576V39.0057H111.497V44.8859H110.843V39.0057H108.756V38.436Z" fill="white"/>
<path d="M128.26 39.6806C128.081 39.4528 127.857 39.2775 127.579 39.1461C127.31 39.0146 126.997 38.9533 126.656 38.9533C126.235 38.9533 125.85 39.0584 125.518 39.2775C125.187 39.4966 124.918 39.8033 124.73 40.2152C124.542 40.6271 124.443 41.1091 124.443 41.6699C124.443 42.2308 124.542 42.7128 124.73 43.1247C124.918 43.5365 125.187 43.852 125.527 44.0623C125.868 44.2814 126.262 44.3866 126.701 44.3866C127.095 44.3866 127.445 44.2989 127.74 44.1324C128.045 43.9659 128.287 43.7206 128.457 43.4138C128.627 43.1071 128.717 42.7303 128.717 42.3097H126.826V41.7488H129.344V42.3009C129.344 42.8442 129.228 43.3174 129.004 43.7206C128.78 44.1237 128.466 44.4392 128.063 44.6582C127.66 44.8773 127.203 44.9825 126.692 44.9825C126.119 44.9825 125.608 44.851 125.169 44.5706C124.73 44.2989 124.39 43.9134 124.157 43.4138C123.915 42.9143 123.798 42.3272 123.798 41.6612C123.798 40.9952 123.915 40.4168 124.157 39.9085C124.398 39.409 124.73 39.0234 125.169 38.7517C125.599 38.4801 126.092 38.3398 126.647 38.3398C127.113 38.3398 127.534 38.4362 127.911 38.6203C128.287 38.8043 128.6 39.0584 128.842 39.3827C129.084 39.6982 129.245 40.0575 129.317 40.4431H128.645C128.565 40.1539 128.43 39.8997 128.251 39.6719L128.26 39.6806Z" fill="white"/>
<path d="M134.227 38.436H136.386C136.852 38.436 137.237 38.5149 137.56 38.6814C137.882 38.8479 138.124 39.0757 138.285 39.3649C138.447 39.6541 138.527 39.9959 138.527 40.3815C138.527 40.8197 138.42 41.1965 138.214 41.512C137.999 41.8274 137.694 42.0465 137.291 42.178L138.805 44.8946H138.061L136.628 42.3007H136.404H134.881V44.8859H134.236V38.4272L134.227 38.436ZM136.368 41.731C136.87 41.731 137.255 41.6171 137.506 41.3805C137.757 41.1439 137.891 40.8109 137.891 40.3902C137.891 39.9696 137.766 39.6278 137.506 39.3825C137.246 39.1371 136.87 39.0144 136.359 39.0144H134.872V41.731H136.368Z" fill="white"/>
<path d="M142.765 44.8947L145.166 38.436H145.865L148.266 44.8947H147.585L146.895 42.9755H144.153L143.464 44.8947H142.783H142.765ZM146.68 42.4146L145.533 39.2598H145.488L144.342 42.4146H146.68Z" fill="white"/>
<path d="M157.924 44.8947H157.306L153.471 39.5753H153.417V44.8947H152.772V38.436H153.399L157.234 43.7642H157.288V38.436H157.924V44.8947Z" fill="white"/>
<path d="M163.039 44.8947V38.436H165.109C165.736 38.436 166.274 38.5675 166.731 38.8216C167.179 39.0758 167.528 39.4438 167.77 39.9258C168.012 40.4078 168.128 40.9774 168.128 41.6434C168.128 42.3095 168.003 42.8966 167.761 43.3873C167.519 43.8781 167.161 44.2462 166.686 44.5003C166.22 44.7544 165.656 44.8859 165.002 44.8859H163.039V44.8947ZM164.957 44.325C165.512 44.325 165.978 44.2199 166.354 44.0096C166.731 43.7992 167.017 43.4925 167.206 43.0894C167.394 42.6863 167.492 42.2131 167.483 41.6522C167.483 41.1001 167.394 40.6269 167.206 40.2325C167.017 39.8382 166.749 39.5402 166.39 39.3299C166.032 39.1196 165.593 39.0144 165.064 39.0144H163.676V44.325H164.948H164.957Z" fill="white"/>
<path d="M178.745 38.436H179.39V41.3805H183.081V38.436H183.735V44.8947H183.081V41.9414H179.39V44.8947H178.745V38.436Z" fill="white"/>
<path d="M193.931 43.4139C193.689 43.9134 193.348 44.3077 192.918 44.5794C192.488 44.8511 191.987 44.9913 191.44 44.9913C190.894 44.9913 190.392 44.8598 189.953 44.5794C189.514 44.3077 189.182 43.9222 188.932 43.4139C188.69 42.9144 188.564 42.3272 188.564 41.67C188.564 41.0127 188.69 40.4256 188.932 39.926C189.173 39.4265 189.514 39.0409 189.953 38.7605C190.392 38.4888 190.885 38.3486 191.44 38.3486C191.996 38.3486 192.488 38.4888 192.918 38.7605C193.357 39.0322 193.689 39.4178 193.931 39.926C194.173 40.4256 194.298 41.0127 194.298 41.67C194.298 42.3272 194.173 42.9144 193.931 43.4139ZM193.375 40.2152C193.178 39.8034 192.918 39.4966 192.578 39.2776C192.238 39.0585 191.861 38.9533 191.431 38.9533C191.001 38.9533 190.616 39.0585 190.284 39.2776C189.944 39.4966 189.684 39.8034 189.487 40.2152C189.29 40.6271 189.2 41.1091 189.2 41.67C189.2 42.2308 189.299 42.7128 189.487 43.1247C189.675 43.5366 189.944 43.852 190.275 44.0624C190.616 44.2814 191.001 44.3866 191.431 44.3866C191.861 44.3866 192.246 44.2814 192.578 44.0624C192.909 43.8433 193.178 43.5278 193.375 43.1247C193.563 42.7128 193.662 42.2308 193.662 41.67C193.662 41.1091 193.563 40.6271 193.375 40.2152Z" fill="white"/>
<path d="M198.464 38.436H203.284V39.0057H201.206V44.8859H200.552V39.0057H198.464V38.436Z" fill="white"/>
<path d="M208.015 38.436H211.876V39.0057H208.66V41.3805H211.679V41.9414H208.66V44.325H211.939V44.8947H208.015V38.436Z" fill="white"/>
<path d="M216.804 38.436H217.449V44.3162H220.575V44.8859H216.804V38.4272V38.436Z" fill="white"/>
<path d="M58.9157 8.24644C56.4698 5.32823 52.8324 3.86475 48.0034 3.86475C43.4432 3.86475 39.8147 5.1442 37.1269 7.70311C34.5556 10.1393 33.2745 13.2416 33.2745 17.0098C33.2745 21.1199 34.5288 24.3273 37.0284 26.6145C39.537 28.9017 42.8877 30.0498 47.0985 30.0498C51.5602 30.0498 55.1618 28.744 57.9033 26.1413C60.5194 23.6612 61.8274 20.5678 61.8274 16.8696C61.8274 13.4607 60.8599 10.5863 58.9157 8.2552V8.24644ZM47.7705 6.05559C50.3865 6.05559 52.4024 7.15102 53.8269 9.34186C54.9109 11.0157 55.4754 13.0575 55.5829 15.4324H39.5997C39.8595 12.6982 40.5493 10.5512 41.6782 8.9738C43.0758 7.02833 45.1006 6.05559 47.7705 6.05559ZM47.2867 27.8501C44.6706 27.8501 42.6637 26.8161 41.2661 24.7479C40.1372 23.0653 39.5549 20.9621 39.4922 18.4733H55.4933C55.2424 20.743 54.6153 22.6885 53.5939 24.3097C52.0978 26.6671 49.9923 27.8501 47.2777 27.8501H47.2867Z" fill="white"/>
<path d="M181.908 14.5297H178.799V1.52483C178.799 0.683544 179.498 0 180.358 0C181.218 0 181.917 0.683544 181.917 1.52483V14.5297H181.908Z" fill="white"/>
</g>
<defs>
<clipPath id="clip0_193_52">
<rect width="222" height="45" fill="white"/>
</clipPath>
</defs>
</svg>
