<?xml version="1.0" encoding="UTF-8"?>
<svg id="Layer_1" data-name="Layer 1" xmlns="http://www.w3.org/2000/svg" viewBox="0 0 248.69 54.35">
  <defs>
    <style>
      .cls-1 {
        letter-spacing: .38em;
      }

      .cls-2 {
        fill: #d9d4bf;
        font-family: Pretendard-Medium-KSCpc-EUC-H, Pretendard;
        font-size: 10.42px;
        font-weight: 500;
      }

      .cls-3 {
        letter-spacing: .37em;
      }

      .cls-4 {
        letter-spacing: .35em;
      }

      .cls-5 {
        letter-spacing: .38em;
      }

      .cls-6 {
        letter-spacing: .35em;
      }

      .cls-7 {
        fill: #5a5843;
      }

      .cls-8 {
        letter-spacing: .38em;
      }
    </style>
  </defs>
  <path class="cls-7" d="M17.77,24.68c1.17-2.31,2.21-4.35,3.13-6.13,1.14-2.22,2.24-4.41,3.3-6.55,1.5-3.06,2.6-5.37,3.3-6.93.39.06.73.11,1.02.15.29.04.53.07.73.07s.49-.03.88-.09c.39-.06.69-.1.92-.13.39,3.53.79,7.05,1.21,10.56.64,5.51,1.02,8.65,1.13,9.43.36,2.59.81,5.47,1.33,8.64-.42,0-1.04-.03-1.88-.1-.83-.07-1.36-.1-1.59-.1-.47,0-1.11.03-1.9.1-.79.07-1.29.1-1.48.1,0-2.64-.21-5.73-.63-9.28-.42-3.54-.81-6.93-1.17-10.15-1.06,2.14-2.11,4.28-3.15,6.4-1.04,2.13-2.08,4.25-3.11,6.36-.7,1.45-1.7,3.6-3,6.47-.45-.06-.78-.08-1-.08-.11,0-.31.03-.58.08-.95-2-1.89-3.99-2.84-5.97-1.2-2.45-2.23-4.55-3.09-6.3-1.08-2.17-2.16-4.34-3.21-6.51-.42,3.14-.71,5.44-.88,6.88-.28,2.31-.49,4.46-.65,6.47-.15,2-.23,3.88-.23,5.63-.45-.06-.83-.1-1.15-.15-.32-.04-.59-.06-.81-.06-.42,0-.77.02-1.04.06-.28.04-.57.09-.88.14.5-2.73.99-5.66,1.46-8.8.28-1.75.73-4.9,1.36-9.43.63-4.53,1.11-8,1.44-10.39.39.06.72.11,1,.15.28.04.51.07.71.07.39,0,.73-.03,1.02-.09.29-.06.54-.1.73-.13.69,1.53,1.72,3.7,3.09,6.51,1.06,2.17,2.13,4.35,3.21,6.55,1.08,2.2,2.18,4.38,3.3,6.55Z"/>
  <path class="cls-7" d="M89.61,24.68c1.17-2.31,2.21-4.35,3.13-6.13,1.14-2.22,2.24-4.41,3.3-6.55,1.5-3.06,2.6-5.37,3.3-6.93.39.06.73.11,1.02.15.29.04.53.07.73.07s.49-.03.88-.09c.39-.06.69-.1.92-.13.39,3.53.79,7.05,1.21,10.56.64,5.51,1.02,8.65,1.13,9.43.36,2.59.81,5.47,1.33,8.64-.42,0-1.04-.03-1.88-.1-.83-.07-1.36-.1-1.59-.1-.47,0-1.11.03-1.9.1-.79.07-1.29.1-1.48.1,0-2.64-.21-5.73-.63-9.28-.42-3.54-.81-6.93-1.17-10.15-1.06,2.14-2.11,4.28-3.15,6.4-1.04,2.13-2.08,4.25-3.11,6.36-.7,1.45-1.7,3.6-3,6.47-.45-.06-.78-.08-1-.08-.11,0-.31.03-.58.08-.95-2-1.89-3.99-2.84-5.97-1.2-2.45-2.23-4.55-3.09-6.3-1.08-2.17-2.16-4.34-3.21-6.51-.42,3.14-.71,5.44-.88,6.88-.28,2.31-.49,4.46-.65,6.47-.15,2-.23,3.88-.23,5.63-.45-.06-.83-.1-1.15-.15-.32-.04-.59-.06-.81-.06-.42,0-.77.02-1.04.06-.28.04-.57.09-.88.14.5-2.73.99-5.66,1.46-8.8.28-1.75.73-4.9,1.36-9.43.63-4.53,1.11-8,1.44-10.39.39.06.72.11,1,.15.28.04.51.07.71.07.39,0,.73-.03,1.02-.09.29-.06.54-.1.73-.13.69,1.53,1.72,3.7,3.09,6.51,1.06,2.17,2.13,4.35,3.21,6.55,1.08,2.2,2.18,4.38,3.3,6.55Z"/>
  <path class="cls-7" d="M111.22,5.08h15.9c-.06.31-.1.63-.15.96-.04.33-.06.61-.06.83,0,.19.03.49.08.88.06.39.1.7.13.92-1.42-.19-2.89-.34-4.4-.44-1.52-.1-3.26-.15-5.24-.15v8.97h4.34c1.08,0,1.93-.02,2.52-.06.6-.04,1.47-.15,2.61-.31-.06.31-.1.63-.15.96-.04.33-.06.61-.06.83,0,.19.03.49.08.88.06.39.1.7.13.92-.67-.08-1.5-.17-2.48-.25-.99-.08-1.87-.13-2.65-.13h-4.34v10.6c1.97,0,3.72-.05,5.24-.15,1.52-.1,2.98-.24,4.4-.44-.06.31-.1.63-.15.96-.04.33-.06.61-.06.83,0,.2.03.49.08.88.06.39.1.7.13.92h-15.9V5.08Z"/>
  <path class="cls-7" d="M132.34,33.62V5.08h4.13c1.84,2,3.82,4.14,5.97,6.43,1.2,1.25,3.23,3.44,6.11,6.55,2.88,3.12,4.86,5.3,5.95,6.55V5.08l1.67.13,1.67-.13v28.62l-3.55-.04c-2.36-2.61-4.71-5.24-7.05-7.89-2.45-2.73-4.78-5.26-7.01-7.59l-4.55-4.76v20.28l-1.67-.21-1.67.13Z"/>
  <path class="cls-7" d="M176.15,8.04v25.66c-.47,0-.86-.01-1.17-.04-1.2-.11-1.85-.17-1.96-.17-.47,0-1.08.03-1.84.1-.75.07-1.18.1-1.29.1V8.04c-1.47,0-2.76.05-3.86.15-1.1.1-2.4.24-3.9.44.06-.39.1-.73.15-1.02.04-.29.06-.55.06-.77,0-.39-.03-.73-.08-1.02-.06-.29-.1-.54-.13-.73h21.49c-.06.39-.1.73-.15,1.02-.04.29-.06.54-.06.73,0,.42.03.77.08,1.06.06.29.1.54.13.73-2.03-.25-3.25-.39-3.67-.42-1.25-.11-2.52-.17-3.8-.17Z"/>
  <path class="cls-7" d="M217.69,19.16c0,4.22-1.46,7.75-4.38,10.58-3.06,2.97-7.08,4.46-12.06,4.46-4.7,0-8.45-1.31-11.24-3.92-2.8-2.61-4.19-6.26-4.19-10.96,0-4.31,1.43-7.85,4.3-10.62,3-2.92,7.05-4.38,12.14-4.38,5.4,0,9.46,1.67,12.18,5,2.17,2.67,3.25,5.95,3.25,9.83ZM202,6.83c-2.98,0-5.24,1.11-6.8,3.33-1.64,2.33-2.46,5.79-2.46,10.37,0,3.05.67,5.6,2,7.62,1.56,2.36,3.8,3.54,6.72,3.54s5.38-1.35,7.05-4.04c1.5-2.44,2.25-5.54,2.25-9.29,0-3.08-.67-5.68-2-7.79-1.59-2.5-3.84-3.75-6.76-3.75Z"/>
  <path class="cls-7" d="M222.75,33.62V5.08h4.13c1.84,2,3.82,4.14,5.97,6.43,1.2,1.25,3.23,3.44,6.11,6.55,2.88,3.12,4.86,5.3,5.95,6.55V5.08l1.67.13,1.67-.13v28.62l-3.55-.04c-2.36-2.61-4.71-5.24-7.05-7.89-2.45-2.73-4.78-5.26-7.01-7.59l-4.55-4.76v20.28l-1.67-.21-1.67.13Z"/>
  <text class="cls-2" transform="translate(0 51.23)"><tspan class="cls-1" x="0" y="0">BU</tspan><tspan class="cls-3" x="21.79" y="0">S</tspan><tspan class="cls-5" x="32.08" y="0">AN </tspan><tspan class="cls-4" x="60.92" y="0">T</tspan><tspan class="cls-8" x="71.05" y="0">OURIST GRAND H</tspan><tspan class="cls-6" x="211.4" y="0">O</tspan><tspan class="cls-1" x="222.71" y="0">TEL</tspan></text>
  <path class="cls-7" d="M66.21,9.41c-2.73-3.33-6.79-5-12.18-5-5.09,0-9.14,1.46-12.14,4.38-2.87,2.78-4.3,6.32-4.3,10.62,0,4.69,1.4,8.35,4.19,10.96,2.8,2.61,6.54,3.92,11.24,3.92,4.98,0,9-1.49,12.06-4.46,2.92-2.83,4.38-6.36,4.38-10.58,0-3.89-1.08-7.17-3.25-9.83ZM53.77,6.91c2.92,0,5.17,1.25,6.76,3.75,1.21,1.91,1.84,4.24,1.96,6.95h-17.84c.29-3.12,1.06-5.57,2.32-7.37,1.56-2.22,3.82-3.33,6.8-3.33ZM53.23,31.78c-2.92,0-5.16-1.18-6.72-3.54-1.26-1.92-1.91-4.32-1.98-7.16h17.86c-.28,2.59-.98,4.81-2.12,6.66-1.67,2.69-4.02,4.04-7.05,4.04Z"/>
  <path class="cls-7" d="M203.49,16.58h-3.47V1.74c0-.96.78-1.74,1.74-1.74h0c.96,0,1.74.78,1.74,1.74v14.84Z"/>
</svg>