<?xml version="1.0" encoding="UTF-8"?>
<svg id="Layer_1" data-name="Layer 1" xmlns="http://www.w3.org/2000/svg" viewBox="0 0 205.8 74.67">
  <defs>
    <style>
      .cls-1 {
        letter-spacing: .21em;
      }

      .cls-2 {
        letter-spacing: .19em;
      }

      .cls-3 {
        fill: #d9d4bf;
        font-family: Pretendard-Medium-KSCpc-EUC-H, Pretendard;
        font-size: 10.33px;
        font-weight: 500;
      }

      .cls-4 {
        fill: #5a5843;
      }

      .cls-5 {
        letter-spacing: .22em;
      }
    </style>
  </defs>
  <text class="cls-3" transform="translate(0 57.17)"><tspan class="cls-5" x="0" y="0">BU</tspan><tspan class="cls-1" x="18.3" y="0">S</tspan><tspan class="cls-5" x="26.86" y="0">AN </tspan><tspan class="cls-2" x="50.5" y="0">T</tspan><tspan class="cls-5" x="58.9" y="0">OURIST</tspan><tspan class="cls-5" x="0" y="13.95">GRAND H</tspan><tspan class="cls-2" x="60.99" y="13.95">O</tspan><tspan class="cls-5" x="70.55" y="13.95">TEL</tspan></text>
  <path class="cls-4" d="M20.74,22.62c1.3-2.58,2.47-4.86,3.49-6.84,1.27-2.48,2.5-4.92,3.68-7.31,1.68-3.41,2.9-5.99,3.68-7.73.43.07.81.12,1.14.17.33.05.6.07.81.07s.54-.03.98-.1c.43-.07.78-.11,1.02-.15.43,3.94.88,7.87,1.35,11.78.71,6.15,1.13,9.65,1.26,10.52.4,2.89.9,6.1,1.49,9.64-.47,0-1.16-.04-2.1-.11-.93-.07-1.52-.11-1.77-.11-.53,0-1.23.04-2.12.11-.88.07-1.44.11-1.65.11,0-2.95-.23-6.4-.7-10.35-.47-3.96-.9-7.73-1.3-11.33-1.18,2.39-2.35,4.77-3.52,7.15-1.16,2.37-2.32,4.74-3.47,7.1-.78,1.61-1.89,4.02-3.35,7.22-.5-.06-.87-.09-1.12-.09-.12,0-.34.03-.65.09-1.06-2.23-2.11-4.45-3.17-6.66-1.33-2.73-2.48-5.07-3.44-7.03-1.21-2.42-2.41-4.84-3.59-7.26-.47,3.51-.79,6.07-.98,7.68-.31,2.58-.55,4.98-.72,7.22-.17,2.23-.26,4.33-.26,6.29-.5-.06-.92-.12-1.28-.16-.36-.05-.66-.07-.91-.07-.47,0-.85.02-1.16.07-.31.04-.64.1-.98.16.56-3.04,1.1-6.32,1.63-9.82.31-1.96.82-5.46,1.51-10.52.7-5.06,1.23-8.92,1.61-11.59.43.07.81.12,1.12.17.31.05.57.07.79.07.43,0,.81-.03,1.14-.1.33-.07.6-.11.81-.15.78,1.71,1.92,4.13,3.45,7.26,1.18,2.42,2.37,4.86,3.59,7.31,1.21,2.45,2.44,4.89,3.68,7.31Z"/>
  <path class="cls-4" d="M100.91,22.62c1.3-2.58,2.47-4.86,3.49-6.84,1.27-2.48,2.5-4.92,3.68-7.31,1.68-3.41,2.9-5.99,3.68-7.73.43.07.81.12,1.14.17.33.05.6.07.81.07s.54-.03.98-.1c.43-.07.78-.11,1.02-.15.43,3.94.88,7.87,1.35,11.78.71,6.15,1.13,9.65,1.26,10.52.4,2.89.9,6.1,1.49,9.64-.47,0-1.16-.04-2.1-.11-.93-.07-1.52-.11-1.77-.11-.53,0-1.23.04-2.12.11-.88.07-1.44.11-1.65.11,0-2.95-.23-6.4-.7-10.35-.47-3.96-.9-7.73-1.3-11.33-1.18,2.39-2.35,4.77-3.52,7.15s-2.32,4.74-3.47,7.1c-.78,1.61-1.89,4.02-3.35,7.22-.5-.06-.87-.09-1.12-.09-.12,0-.34.03-.65.09-1.06-2.23-2.11-4.45-3.17-6.66-1.33-2.73-2.48-5.07-3.44-7.03-1.21-2.42-2.41-4.84-3.59-7.26-.47,3.51-.79,6.07-.98,7.68-.31,2.58-.55,4.98-.72,7.22-.17,2.23-.26,4.33-.26,6.29-.5-.06-.92-.12-1.28-.16-.36-.05-.66-.07-.91-.07-.47,0-.85.02-1.16.07-.31.04-.64.1-.98.16.56-3.04,1.1-6.32,1.63-9.82.31-1.96.82-5.46,1.51-10.52.7-5.06,1.23-8.92,1.61-11.59.43.07.81.12,1.12.17.31.05.57.07.79.07.43,0,.81-.03,1.14-.1.33-.07.6-.11.81-.15.78,1.71,1.92,4.13,3.45,7.26,1.18,2.42,2.37,4.86,3.59,7.31,1.21,2.45,2.44,4.89,3.68,7.31Z"/>
  <path class="cls-4" d="M125.02.76h17.74c-.06.34-.12.7-.16,1.07-.05.37-.07.68-.07.93,0,.22.03.54.09.98.06.44.11.78.14,1.02-1.58-.22-3.22-.38-4.91-.49-1.69-.11-3.64-.16-5.84-.16v10.01h4.84c1.21,0,2.15-.02,2.82-.07.67-.05,1.64-.16,2.91-.35-.06.34-.12.7-.16,1.07-.05.37-.07.68-.07.93,0,.22.03.54.09.98.06.44.11.78.14,1.02-.74-.09-1.67-.19-2.77-.28-1.1-.09-2.09-.14-2.96-.14h-4.84v11.83c2.2,0,4.15-.05,5.84-.16,1.69-.11,3.33-.27,4.91-.49-.06.34-.12.7-.16,1.07-.05.37-.07.68-.07.93,0,.22.03.54.09.98.06.44.11.78.14,1.02h-17.74V.76Z"/>
  <path class="cls-4" d="M148.58,32.6V.76h4.61c2.05,2.23,4.27,4.63,6.66,7.17,1.33,1.4,3.61,3.83,6.82,7.31,3.21,3.48,5.42,5.91,6.63,7.31V.76l1.86.14,1.86-.14v31.94l-3.96-.05c-2.64-2.92-5.26-5.85-7.87-8.8-2.73-3.04-5.34-5.87-7.82-8.47l-5.07-5.31v22.63l-1.86-.23-1.86.14Z"/>
  <path class="cls-4" d="M197.47,4.06v28.63c-.53,0-.96-.02-1.3-.05-1.33-.12-2.06-.19-2.19-.19-.53,0-1.21.04-2.05.12-.84.08-1.32.12-1.44.12V4.06c-1.65,0-3.08.05-4.31.16-1.23.11-2.68.27-4.35.49.06-.43.12-.82.16-1.14.05-.33.07-.61.07-.86,0-.43-.03-.81-.09-1.14-.06-.33-.11-.6-.14-.81h23.98c-.06.44-.12.81-.16,1.14-.05.33-.07.6-.07.81,0,.47.03.86.09,1.19.06.33.11.6.14.82-2.27-.28-3.63-.43-4.1-.47-1.4-.12-2.81-.19-4.24-.19Z"/>
  <path class="cls-4" d="M74.79,5.58c-3.04-3.72-7.57-5.58-13.59-5.58-5.68,0-10.2,1.63-13.55,4.88-3.2,3.1-4.8,7.05-4.8,11.85,0,5.24,1.56,9.31,4.68,12.23,3.12,2.91,7.3,4.37,12.55,4.37,5.56,0,10.04-1.66,13.45-4.97,3.26-3.16,4.89-7.1,4.89-11.81,0-4.34-1.21-8-3.63-10.97ZM60.92,2.79c3.26,0,5.77,1.39,7.54,4.18,1.35,2.13,2.05,4.73,2.18,7.75h-19.91c.33-3.48,1.19-6.22,2.59-8.22,1.74-2.48,4.27-3.72,7.59-3.72ZM60.31,30.54c-3.26,0-5.76-1.32-7.5-3.95-1.41-2.14-2.13-4.82-2.21-7.99h19.93c-.31,2.89-1.1,5.37-2.36,7.43-1.86,3.01-4.49,4.51-7.87,4.51Z"/>
  <path class="cls-4" d="M162.4,57.88c0,4.71-1.63,8.65-4.89,11.81-3.42,3.32-7.9,4.97-13.46,4.97-5.25,0-9.43-1.46-12.55-4.37-3.12-2.91-4.68-6.99-4.68-12.23,0-4.8,1.6-8.76,4.8-11.85,3.35-3.25,7.87-4.88,13.55-4.88,6.02,0,10.55,1.86,13.59,5.58,2.42,2.98,3.63,6.63,3.63,10.97ZM144.9,44.13c-3.32,0-5.85,1.24-7.59,3.72-1.83,2.6-2.75,6.46-2.75,11.57,0,3.41.74,6.24,2.23,8.51,1.74,2.63,4.24,3.95,7.5,3.95s6.01-1.5,7.87-4.51c1.68-2.73,2.51-6.18,2.51-10.36,0-3.44-.74-6.34-2.23-8.69-1.77-2.79-4.28-4.18-7.54-4.18Z"/>
  <path class="cls-4" d="M168.05,74.02v-31.84h4.61c2.05,2.23,4.27,4.63,6.66,7.17,1.33,1.4,3.61,3.83,6.82,7.31,3.21,3.48,5.42,5.91,6.63,7.31v-21.79l1.86.14,1.86-.14v31.94l-3.96-.05c-2.64-2.92-5.26-5.85-7.87-8.8-2.73-3.04-5.34-5.87-7.82-8.47l-5.07-5.31v22.63l-1.86-.23-1.86.14Z"/>
  <path class="cls-4" d="M146.56,55h-3.88v-16.56c0-1.07.87-1.94,1.94-1.94h0c1.07,0,1.94.87,1.94,1.94v16.56Z"/>
</svg>